HIERARCHY
ROOT Hips
{
	OFFSET 0.000000 0.000000 0.000000 
	CHANNELS 6 Xposition Yposition Zposition Yrotation Xrotation Zrotation
	JOINT Spine
	{
		OFFSET 0.000000 0.072080 0.012321 
		CHANNELS 3 Xrotation Yrotation Zrotation
		JOINT Spine1
		{
			OFFSET 0.000000 0.126984 -0.001294 
			CHANNELS 3 Xrotation Yrotation Zrotation
			JOINT Spine2
			{
				OFFSET 0.000000 0.106559 -0.010096 
				CHANNELS 3 Xrotation Yrotation Zrotation
				JOINT Neck
				{
					OFFSET 0.000000 0.108417 -0.034017 
					CHANNELS 3 Xrotation Yrotation Zrotation
					JOINT Neck1
					{
						OFFSET 0.000000 0.033906 0.007241 
						CHANNELS 3 Xrotation Yrotation Zrotation
						JOINT Head
						{
							OFFSET 0.000000 0.031458 0.006707 
							CHANNELS 3 Xrotation Yrotation Zrotation
							End Site
							{
								OFFSET 0.000000 0.179920 0.000962 
							}
						}
					}
				}
				JOINT LeftShoulder
				{
					OFFSET 0.048002 0.079586 -0.029634 
					CHANNELS 3 Zrotation Xrotation Yrotation
					JOINT LeftArm
					{
						OFFSET 0.096243 -0.008695 -0.014012 
						CHANNELS 3 Zrotation Xrotation Yrotation
						JOINT LeftForeArm
						{
							OFFSET 0.216305 0.000000 0.000000 
							CHANNELS 3 Xrotation Zrotation Yrotation
							JOINT LeftHand
							{
								OFFSET 0.217764 0.000000 0.000000 
								CHANNELS 3 Zrotation Yrotation Xrotation
								JOINT LeftHandThumb1
								{
									OFFSET 0.018582 -0.007835 0.020476 
									CHANNELS 3 Zrotation Xrotation Yrotation
									JOINT LeftHandThumb2
									{
										OFFSET 0.026269 -0.007835 0.022186 
										CHANNELS 3 Zrotation Xrotation Yrotation
										JOINT LeftHandThumb3
										{
											OFFSET 0.035170 -0.010504 0.017018 
											CHANNELS 3 Zrotation Xrotation Yrotation
											End Site
											{
												OFFSET 0.020312 -0.007813 0.007813 
											}
										}
									}
								}
								JOINT LeftHandMiddle1
								{
									OFFSET 0.081749 0.004803 0.003358 
									CHANNELS 3 Zrotation Xrotation Yrotation
									JOINT LeftHandMiddle2
									{
										OFFSET 0.045251 0.000000 0.000000 
										CHANNELS 3 Zrotation Xrotation Yrotation
										JOINT LeftHandMiddle3
										{
											OFFSET 0.029009 0.000000 0.000000 
											CHANNELS 3 Zrotation Xrotation Yrotation
											End Site
											{
												OFFSET 0.017969 0.000000 0.000000 
											}
										}
									}
								}
								JOINT LeftHandIndex1
								{
									OFFSET 0.081207 0.004803 0.021137 
									CHANNELS 3 Zrotation Xrotation Yrotation
									JOINT LeftHandIndex2
									{
										OFFSET 0.043354 0.000000 0.000000 
										CHANNELS 3 Zrotation Xrotation Yrotation
										JOINT LeftHandIndex3
										{
											OFFSET 0.026493 0.000000 0.000000 
											CHANNELS 3 Zrotation Xrotation Yrotation
											End Site
											{
												OFFSET 0.019531 0.000000 0.000000 
											}
										}
									}
								}
								JOINT LeftHandRing1
								{
									OFFSET 0.080666 0.002509 -0.014652 
									CHANNELS 3 Zrotation Xrotation Yrotation
									JOINT LeftHandRing2
									{
										OFFSET 0.042541 0.000000 0.000000 
										CHANNELS 3 Zrotation Xrotation Yrotation
										JOINT LeftHandRing3
										{
											OFFSET 0.029009 0.000000 0.000000 
											CHANNELS 3 Zrotation Xrotation Yrotation
											End Site
											{
												OFFSET 0.015625 0.000000 0.000000 
											}
										}
									}
								}
								JOINT LeftHandPinky1
								{
									OFFSET 0.078227 -0.000612 -0.030993 
									CHANNELS 3 Zrotation Xrotation Yrotation
									JOINT LeftHandPinky2
									{
										OFFSET 0.028721 0.000000 0.000000 
										CHANNELS 3 Zrotation Xrotation Yrotation
										JOINT LeftHandPinky3
										{
											OFFSET 0.021963 0.000000 0.000000 
											CHANNELS 3 Zrotation Xrotation Yrotation
											End Site
											{
												OFFSET 0.022656 0.000000 0.000000 
											}
										}
									}
								}
							}
						}
					}
				}
				JOINT RightShoulder
				{
					OFFSET -0.047970 0.079586 -0.029634 
					CHANNELS 3 Zrotation Xrotation Yrotation
					JOINT RightArm
					{
						OFFSET -0.096274 -0.008695 -0.014012 
						CHANNELS 3 Zrotation Xrotation Yrotation
						JOINT RightForeArm
						{
							OFFSET -0.216305 0.000000 0.000000 
							CHANNELS 3 Xrotation Zrotation Yrotation
							JOINT RightHand
							{
								OFFSET -0.217764 0.000000 0.000000 
								CHANNELS 3 Zrotation Yrotation Xrotation
								JOINT RightHandThumb1
								{
									OFFSET -0.019670 -0.007318 0.019638 
									CHANNELS 3 Zrotation Xrotation Yrotation
									JOINT RightHandThumb2
									{
										OFFSET -0.025498 -0.008492 0.023179 
										CHANNELS 3 Zrotation Xrotation Yrotation
										JOINT RightHandThumb3
										{
											OFFSET -0.034504 -0.010705 0.016680 
											CHANNELS 3 Zrotation Xrotation Yrotation
											End Site
											{
												OFFSET -0.020312 -0.007813 0.007813 
											}
										}
									}
								}
								JOINT RightHandIndex1
								{
									OFFSET -0.081770 0.003825 0.021187 
									CHANNELS 3 Zrotation Xrotation Yrotation
									JOINT RightHandIndex2
									{
										OFFSET -0.042006 0.000000 0.000000 
										CHANNELS 3 Zrotation Xrotation Yrotation
										JOINT RightHandIndex3
										{
											OFFSET -0.026449 0.000000 0.000000 
											CHANNELS 3 Zrotation Xrotation Yrotation
											End Site
											{
												OFFSET -0.020312 0.000000 0.000000 
											}
										}
									}
								}
								JOINT RightHandMiddle1
								{
									OFFSET -0.084059 0.003825 0.003342 
									CHANNELS 3 Zrotation Xrotation Yrotation
									JOINT RightHandMiddle2
									{
										OFFSET -0.043881 0.000000 0.000000 
										CHANNELS 3 Zrotation Xrotation Yrotation
										JOINT RightHandMiddle3
										{
											OFFSET -0.029191 0.000000 0.000000 
											CHANNELS 3 Zrotation Xrotation Yrotation
											End Site
											{
												OFFSET -0.017969 0.000000 0.000000 
											}
										}
									}
								}
								JOINT RightHandRing1
								{
									OFFSET -0.081798 0.003030 -0.015127 
									CHANNELS 3 Zrotation Xrotation Yrotation
									JOINT RightHandRing2
									{
										OFFSET -0.042198 0.000000 0.000000 
										CHANNELS 3 Zrotation Xrotation Yrotation
										JOINT RightHandRing3
										{
											OFFSET -0.026497 0.000000 0.000000 
											CHANNELS 3 Zrotation Xrotation Yrotation
											End Site
											{
												OFFSET -0.017188 0.000000 0.000000 
											}
										}
									}
								}
								JOINT RightHandPinky1
								{
									OFFSET -0.077902 -0.000930 -0.030891 
									CHANNELS 3 Zrotation Xrotation Yrotation
									JOINT RightHandPinky2
									{
										OFFSET -0.028538 0.000000 0.000000 
										CHANNELS 3 Zrotation Xrotation Yrotation
										JOINT RightHandPinky3
										{
											OFFSET -0.021734 0.000000 0.000000 
											CHANNELS 3 Zrotation Xrotation Yrotation
											End Site
											{
												OFFSET -0.022656 0.000000 0.000000 
											}
										}
									}
								}
							}
						}
					}
				}
			}
		}
	}
	JOINT LeftUpLeg
	{
		OFFSET 0.075264 -0.025573 0.000000 
		CHANNELS 3 Xrotation Yrotation Zrotation
		JOINT LeftLeg
		{
			OFFSET 0.000000 -0.326016 -0.013516 
			CHANNELS 3 Xrotation Yrotation Zrotation
			JOINT LeftFoot
			{
				OFFSET 0.000098 -0.306172 -0.006623 
				CHANNELS 3 Xrotation Yrotation Zrotation
				JOINT LeftToeBase
				{
					OFFSET -0.001432 -0.095259 0.064705 
					CHANNELS 3 Xrotation Yrotation Zrotation
					End Site
					{
						OFFSET 0.000000 0.000000 0.079438 
					}
				}
			}
		}
	}
	JOINT RightUpLeg
	{
		OFFSET -0.075264 -0.025573 0.000000 
		CHANNELS 3 Xrotation Yrotation Zrotation
		JOINT RightLeg
		{
			OFFSET 0.000000 -0.326016 -0.013516 
			CHANNELS 3 Xrotation Yrotation Zrotation
			JOINT RightFoot
			{
				OFFSET 0.000098 -0.306172 -0.006623 
				CHANNELS 3 Xrotation Yrotation Zrotation
				JOINT RightToeBase
				{
					OFFSET -0.001432 -0.095259 0.064705 
					CHANNELS 3 Xrotation Yrotation Zrotation
					End Site
					{
						OFFSET 0.000025 0.000000 0.079438 
					}
				}
			}
		}
	}
}
MOTION
Frames: 4
Frame Time: 0.033333
0.000966 0.697873 0.000203 -82.311699 6.622500 -0.401200 8.211400 4.698300 -1.882300 2.873400 1.676200 -0.318200 2.888600 1.646700 -0.336500 -1.541600 11.124800 -0.475500 -0.000000 0.000000 -0.000000 -9.615600 52.093300 -10.487400 -11.719900 2.838200 4.284100 -44.585999 23.536200 5.456200 -0.000000 -0.000000 -70.972000 6.609800 -10.794800 41.970299 -7.964200 8.089300 9.016600 9.708900 -4.062900 2.101100 3.571500 -3.160700 -2.746700 -3.423300 -0.158000 0.717800 -20.165100 -0.278000 0.720400 -7.244800 -0.008000 0.255000 8.832600 0.454400 -1.713800 -9.290400 -0.107400 0.764300 -4.962300 -0.018900 -0.219300 -13.197300 -0.788400 6.073600 -17.567900 0.076000 0.297100 -9.816800 0.140200 -0.030800 -12.426800 -0.832200 10.213600 -22.304001 -0.108600 -0.250400 5.623100 0.040600 0.864600 14.819900 7.185300 23.513000 31.661699 22.933300 -9.683700 -0.000000 -0.000000 37.986698 4.483300 -1.464800 30.905701 11.940500 6.402000 0.676900 -8.632700 -7.987400 -12.411900 -1.572400 -2.236200 -6.364100 17.773899 -0.328700 8.430700 13.228900 -0.191400 -1.023500 12.529500 -0.098400 0.975900 40.715199 -2.265200 3.297300 28.210699 -0.532900 -1.219500 18.922701 -0.097200 -0.451300 44.844501 -2.566100 -4.439400 35.279800 -0.060200 -0.971700 25.800400 0.102600 1.345300 59.419601 -3.501300 -2.557400 53.909401 -0.691200 -0.559100 26.788099 -0.498200 1.736300 -31.467600 -0.484000 9.575200 107.260399 6.248200 2.285300 8.212500 10.193300 0.052100 -9.615400 0.000000 0.000000 -26.683701 -0.843700 5.398900 47.453999 -5.429100 -1.213300 -27.632900 -1.180500 -1.381000 -2.938100 0.000000 -0.000000 
-0.082521 0.700089 -0.000248 -81.427101 7.302000 -0.640200 8.557500 5.951600 -1.791100 3.059200 2.309800 -0.380600 3.078300 2.283900 -0.402700 -1.918100 10.510000 0.075200 -0.000000 0.000000 -0.000000 -10.350100 50.599201 -10.202900 -12.109700 2.479200 7.132100 -47.139000 26.610300 11.717000 -0.000000 -0.000000 -66.870003 3.494200 -9.386800 44.601002 -6.227800 4.340700 12.263000 7.215600 -2.290000 -0.188100 4.716900 -3.035600 -2.305300 -8.935300 -0.450900 0.304600 -21.199301 -0.292900 0.712500 -8.279600 -0.009600 0.251900 5.042100 0.241500 -2.375400 -9.690100 -0.112700 0.762800 -5.363400 -0.018800 -0.220000 -17.322500 -0.989800 5.750900 -19.150999 0.083200 0.294300 -11.391900 0.156200 -0.032900 -16.570499 -1.087900 9.766400 -25.535999 -0.121600 -0.264400 2.427400 0.013000 0.859200 16.663099 8.169900 26.007500 28.738001 20.393299 -1.569000 -0.000000 -0.000000 42.482700 5.308000 -4.527600 31.330099 12.061100 6.356800 0.948300 -7.884400 -8.083000 -13.206300 -2.142900 -2.379000 -7.583200 21.177099 -0.685500 9.796600 13.587400 -0.197800 -1.029200 12.902400 -0.100000 0.968900 43.472801 -2.399100 4.698900 27.742001 -0.522000 -1.215300 18.421200 -0.093400 -0.442900 47.184399 -2.649100 -3.545900 35.639801 -0.062800 -0.977700 26.149099 0.102900 1.338200 60.760201 -3.477300 -0.986600 55.168499 -0.714300 -0.567100 28.010500 -0.518000 1.720900 -44.077301 -1.898800 9.041100 109.489700 4.165700 1.021100 1.622600 7.382900 0.785800 -6.558400 0.000000 -0.000000 -15.399100 -1.599900 6.819700 39.237598 -4.771300 -1.622300 -31.472700 -1.813000 -2.481600 -4.479200 -0.000000 -0.000000 
-0.172905 0.709916 0.003248 -78.707603 7.647600 0.648500 8.250900 7.538600 -3.017400 2.961500 3.068400 -0.769400 2.974200 3.051500 -0.788600 -1.292100 9.419500 0.381100 -0.000000 0.000000 -0.000000 -11.420600 46.721401 -8.438500 -12.795200 2.311300 8.401500 -47.395599 28.787701 19.477900 -0.000000 -0.000000 -63.843201 0.099200 -5.492000 46.561401 -2.087100 -0.210400 17.999399 2.922100 -0.326700 -2.400200 5.746900 -2.745600 -0.517700 -13.807800 -0.708300 0.171200 -23.242701 -0.321900 0.696000 -10.321000 -0.012600 0.245800 0.960300 0.022000 -2.737800 -10.682900 -0.125900 0.759100 -6.352300 -0.018600 -0.221700 -21.544201 -1.200500 5.600400 -22.449800 0.098600 0.289200 -14.681300 0.189700 -0.035700 -21.353600 -1.509200 10.095100 -31.375200 -0.143100 -0.291300 -3.333900 -0.036000 0.845600 17.757999 8.794800 27.623100 27.165600 17.487101 2.377300 -0.000000 -0.000000 52.217098 5.610600 -6.369400 31.396700 12.094900 6.348200 1.019600 -8.001000 -8.101600 -13.364000 -3.281500 -2.462900 -8.481700 21.451200 -0.914500 11.977900 14.115500 -0.207400 -1.037500 13.482800 -0.102600 0.958000 43.302299 -2.357900 6.859400 27.364300 -0.513300 -1.211800 17.975599 -0.090000 -0.435500 46.000198 -2.523900 -2.376300 35.984798 -0.065400 -0.983500 26.475000 0.103200 1.331600 58.671101 -3.092800 1.486000 55.950100 -0.728700 -0.571900 28.757099 -0.530200 1.711600 -52.582699 -2.258500 4.599900 102.946198 1.813500 0.631200 -4.359200 7.771400 -2.326100 -3.810400 0.000000 0.000000 9.380600 -3.177900 6.933700 4.116700 -1.887600 -1.479500 -20.844200 -2.350900 -3.999500 -3.490100 0.000000 -0.000000 
-0.266776 0.721798 0.008493 -75.253304 8.147600 2.985400 7.655900 9.858800 -4.970400 2.695900 4.035200 -1.298400 2.695400 4.028400 -1.314100 -0.553000 7.987800 0.561500 -0.000000 0.000000 -0.000000 -12.224200 41.273701 -6.795000 -13.293800 2.348000 8.177700 -45.495998 29.288200 27.193600 0.000000 -0.000000 -60.358898 -3.501000 0.273300 47.402199 3.799100 -4.985000 24.954201 -2.209500 1.254100 -3.866200 6.360100 -2.392400 1.919100 -17.766100 -0.914400 0.165500 -25.657900 -0.355500 0.675100 -12.732100 -0.015800 0.238500 -3.040600 -0.158200 -2.650800 -11.921200 -0.142200 0.754100 -7.582000 -0.018400 -0.223700 -25.313601 -1.385500 5.505700 -26.580799 0.118200 0.284100 -18.802601 0.231900 -0.036500 -25.937901 -1.935300 10.711500 -38.414001 -0.165100 -0.326400 -10.275100 -0.092800 0.822800 18.276501 8.983100 27.796600 26.403500 14.496800 3.590400 -0.000000 -0.000000 65.631798 4.732000 -6.330300 31.650499 12.126000 6.295700 1.137200 -8.291700 -8.126200 -13.369100 -4.715900 -2.505300 -9.442400 20.653400 -1.036500 14.759400 14.556000 -0.215400 -1.044400 14.068100 -0.105300 0.947100 42.191200 -2.253400 9.629200 27.290300 -0.511600 -1.211100 17.887199 -0.089400 -0.434000 43.331402 -2.296800 -0.867600 36.689098 -0.070600 -0.995200 27.162399 0.103600 1.317700 55.658600 -2.828900 4.737600 56.710800 -0.742800 -0.576300 29.472099 -0.542000 1.703000 -56.780399 -1.268200 -1.943000 89.435097 0.046000 0.824600 -8.599500 11.297200 -6.280600 -2.354500 0.000000 -0.000000 14.697800 -7.262100 6.026200 4.814200 -1.408300 -1.075800 -8.784200 -2.761900 -0.896400 -10.770700 0.000000 -0.000000 
